<svg id="Layer_1" data-name="Layer 1" xmlns="http://www.w3.org/2000/svg" viewBox="0 0 2046.91 31.45"><path d="M18.12,11q4.66,0,16.57.78A23.24,23.24,0,0,1,40.22,11q2.36,4.85,2.36,6.31l-2.36,3.14-7.9-.78h-30Q0,18.89,0,15T15.76,11Z"/><path d="M64.73,11q4.67,0,16.57.78A23.24,23.24,0,0,1,86.83,11q2.36,4.85,2.36,6.31l-2.36,3.14-7.89-.78H49q-2.36-.78-2.36-4.72T62.37,11Z"/><path d="M111.35,11q4.66,0,16.56.78a23.31,23.31,0,0,1,5.53-.78c1.58,3.23,2.36,5.33,2.36,6.31l-2.36,3.14-7.89-.78h-30q-2.37-.78-2.37-4.72T109,11Z"/><path d="M158,11q4.66,0,16.56.78a23.38,23.38,0,0,1,5.53-.78q2.37,4.85,2.37,6.31l-2.37,3.14-7.89-.78h-30c-1.58-.52-2.36-2.09-2.36-4.72S145.09,11,155.6,11Z"/><path d="M204.57,11q4.67,0,16.56.78a23.38,23.38,0,0,1,5.54-.78Q229,15.85,229,17.31l-2.36,3.14-7.9-.78h-30q-2.35-.78-2.36-4.72T202.21,11Z"/><path d="M251.18,11q4.66,0,16.57.78a23.24,23.24,0,0,1,5.53-.78q2.36,4.85,2.36,6.31l-2.36,3.14-7.9-.78h-30q-2.35-.78-2.36-4.72T248.82,11Z"/><path d="M297.79,11q4.68,0,16.57.78a23.31,23.31,0,0,1,5.53-.78c1.58,3.23,2.36,5.33,2.36,6.31l-2.36,3.14L312,19.67H282q-2.37-.78-2.37-4.72T295.43,11Z"/><path d="M344.41,11q4.66,0,16.56.78A23.31,23.31,0,0,1,366.5,11q2.37,4.85,2.37,6.31l-2.37,3.14-7.89-.78h-30c-1.58-.52-2.36-2.09-2.36-4.72S331.54,11,342,11Z"/><path d="M391,11q4.67,0,16.56.78a23.38,23.38,0,0,1,5.54-.78q2.36,4.85,2.36,6.31l-2.36,3.14-7.9-.78h-30q-2.36-.78-2.36-4.72T388.66,11Z"/><path d="M437.63,11q4.67,0,16.57.78a23.24,23.24,0,0,1,5.53-.78q2.36,4.85,2.36,6.31l-2.36,3.14-7.9-.78h-30q-2.36-.78-2.36-4.72T435.27,11Z"/><path d="M484.24,11q4.67,0,16.57.78a23.31,23.31,0,0,1,5.53-.78q2.36,4.85,2.36,6.31l-2.36,3.14-7.89-.78h-30q-2.37-.78-2.37-4.72T481.88,11Z"/><path d="M530.86,11q4.67,0,16.56.78A23.31,23.31,0,0,1,553,11c1.58,3.23,2.36,5.33,2.36,6.31L553,20.45l-7.89-.78h-30c-1.58-.52-2.36-2.09-2.36-4.72S518,11,528.49,11Z"/><path d="M577.47,11q4.66,0,16.56.78a23.38,23.38,0,0,1,5.53-.78q2.37,4.85,2.37,6.31l-2.37,3.14-7.89-.78h-30q-2.36-.78-2.36-4.72T575.11,11Z"/><path d="M624.08,11q4.67,0,16.57.78a23.24,23.24,0,0,1,5.53-.78q2.36,4.85,2.36,6.31l-2.36,3.14-7.9-.78h-30Q606,18.89,606,15T621.72,11Z"/><path d="M670.69,11q4.66,0,16.57.78a23.24,23.24,0,0,1,5.53-.78q2.36,4.85,2.36,6.31l-2.36,3.14-7.89-.78h-30q-2.35-.78-2.36-4.72T668.33,11Z"/><path d="M717.31,11q4.66,0,16.56.78A23.31,23.31,0,0,1,739.4,11c1.58,3.23,2.36,5.33,2.36,6.31l-2.36,3.14-7.89-.78h-30q-2.37-.78-2.37-4.72T714.94,11Z"/><path d="M763.92,11q4.67,0,16.56.78A23.38,23.38,0,0,1,786,11q2.37,4.85,2.37,6.31L786,20.45l-7.89-.78h-30c-1.58-.52-2.36-2.09-2.36-4.72S751.05,11,761.56,11Z"/><path d="M810.53,11q4.66,0,16.56.78a23.38,23.38,0,0,1,5.54-.78Q835,15.85,835,17.31l-2.36,3.14-7.9-.78h-30q-2.35-.78-2.36-4.72T808.17,11Z"/><path d="M857.14,11q4.67,0,16.57.78a23.24,23.24,0,0,1,5.53-.78q2.35,4.85,2.36,6.31l-2.36,3.14-7.9-.78h-30Q839,18.89,839,15T854.78,11Z"/><path d="M903.75,11q4.68,0,16.57.78a23.31,23.31,0,0,1,5.53-.78c1.58,3.23,2.36,5.33,2.36,6.31l-2.36,3.14L918,19.67H888q-2.37-.78-2.37-4.72T901.39,11Z"/><path d="M950.37,11q4.67,0,16.56.78a23.31,23.31,0,0,1,5.53-.78q2.37,4.85,2.37,6.31l-2.37,3.14-7.89-.78h-30c-1.58-.52-2.36-2.09-2.36-4.72S937.5,11,948,11Z"/><path d="M997,11q4.66,0,16.56.78a23.38,23.38,0,0,1,5.54-.78q2.35,4.85,2.36,6.31l-2.36,3.14-7.9-.78h-30q-2.36-.78-2.36-4.72T994.62,11Z"/><path d="M1043.59,11q4.67,0,16.57.78a23.24,23.24,0,0,1,5.53-.78q2.36,4.85,2.36,6.31l-2.36,3.14-7.9-.78h-30q-2.36-.78-2.36-4.72T1041.23,11Z"/><path d="M1090.2,11q4.66,0,16.57.78a23.31,23.31,0,0,1,5.53-.78q2.35,4.85,2.36,6.31l-2.36,3.14-7.89-.78h-30q-2.37-.78-2.37-4.72T1087.84,11Z"/><path d="M1136.82,11q4.67,0,16.56.78a23.31,23.31,0,0,1,5.53-.78c1.58,3.23,2.36,5.33,2.36,6.31l-2.36,3.14-7.89-.78h-30c-1.58-.52-2.36-2.09-2.36-4.72S1124,11,1134.45,11Z"/><path d="M1183.43,11q4.66,0,16.56.78a23.38,23.38,0,0,1,5.53-.78q2.37,4.85,2.37,6.31l-2.37,3.14-7.89-.78h-30c-1.58-.52-2.36-2.09-2.36-4.72s5.25-3.95,15.76-3.95Z"/><path d="M1230,11q4.67,0,16.57.78a23.24,23.24,0,0,1,5.53-.78q2.35,4.85,2.36,6.31l-2.36,3.14-7.9-.78h-30q-2.35-.78-2.36-4.72T1227.68,11Z"/><path d="M1276.65,11q4.66,0,16.57.78a23.24,23.24,0,0,1,5.53-.78q2.36,4.85,2.36,6.31l-2.36,3.14-7.89-.78h-30q-2.36-.78-2.36-4.72T1274.29,11Z"/><path d="M1323.27,11q4.67,0,16.56.78a23.31,23.31,0,0,1,5.53-.78c1.58,3.23,2.36,5.33,2.36,6.31l-2.36,3.14-7.89-.78h-30q-2.37-.78-2.37-4.72T1320.9,11Z"/><path d="M1369.88,11q4.66,0,16.56.78A23.38,23.38,0,0,1,1392,11q2.37,4.85,2.37,6.31L1392,20.45l-7.89-.78h-30c-1.58-.52-2.36-2.09-2.36-4.72S1357,11,1367.52,11Z"/><path d="M1416.49,11q4.66,0,16.56.78a23.38,23.38,0,0,1,5.54-.78q2.36,4.85,2.36,6.31l-2.36,3.14-7.9-.78h-30q-2.36-.78-2.36-4.72T1414.13,11Z"/><path d="M1463.1,11q4.67,0,16.57.78a23.24,23.24,0,0,1,5.53-.78q2.35,4.85,2.36,6.31l-2.36,3.14-7.9-.78h-30Q1445,18.89,1445,15T1460.74,11Z"/><path d="M1509.71,11q4.68,0,16.57.78a23.31,23.31,0,0,1,5.53-.78c1.58,3.23,2.36,5.33,2.36,6.31l-2.36,3.14-7.89-.78h-30q-2.37-.78-2.37-4.72T1507.35,11Z"/><path d="M1556.33,11q4.67,0,16.56.78a23.31,23.31,0,0,1,5.53-.78q2.37,4.85,2.37,6.31l-2.37,3.14-7.89-.78h-30c-1.58-.52-2.36-2.09-2.36-4.72S1543.46,11,1554,11Z"/><path d="M1602.94,11q4.66,0,16.56.78A23.38,23.38,0,0,1,1625,11q2.36,4.85,2.36,6.31L1625,20.45l-7.9-.78h-30q-2.36-.78-2.36-4.72T1600.58,11Z"/><path d="M1649.55,11q4.67,0,16.57.78a23.24,23.24,0,0,1,5.53-.78q2.36,4.85,2.36,6.31l-2.36,3.14-7.9-.78h-30q-2.36-.78-2.36-4.72T1647.19,11Z"/><path d="M1696.16,11q4.66,0,16.57.78a23.31,23.31,0,0,1,5.53-.78q2.35,4.85,2.36,6.31l-2.36,3.14-7.89-.78h-30Q1678,18.89,1678,15T1693.8,11Z"/><path d="M1742.78,11q4.67,0,16.56.78a23.31,23.31,0,0,1,5.53-.78c1.58,3.23,2.36,5.33,2.36,6.31l-2.36,3.14-7.89-.78h-30c-1.58-.52-2.36-2.09-2.36-4.72s5.25-3.95,15.75-3.95Z"/><path d="M1789.39,11q4.66,0,16.56.78a23.38,23.38,0,0,1,5.53-.78q2.37,4.85,2.37,6.31l-2.37,3.14-7.89-.78h-30c-1.58-.52-2.36-2.09-2.36-4.72S1776.52,11,1787,11Z"/><path d="M1836,11q4.66,0,16.57.78a23.24,23.24,0,0,1,5.53-.78q2.36,4.85,2.36,6.31l-2.36,3.14-7.9-.78h-30q-2.35-.78-2.36-4.72T1833.64,11Z"/><path d="M1882.61,11q4.67,0,16.57.78a23.24,23.24,0,0,1,5.53-.78q2.36,4.85,2.36,6.31l-2.36,3.14-7.89-.78h-30q-2.36-.78-2.36-4.72T1880.25,11Z"/><path d="M1929.23,11q4.66,0,16.56.78a23.31,23.31,0,0,1,5.53-.78c1.58,3.23,2.36,5.33,2.36,6.31l-2.36,3.14-7.89-.78h-30q-2.37-.78-2.37-4.72T1926.86,11Z"/><path d="M1975.84,11q4.67,0,16.56.78a23.38,23.38,0,0,1,5.53-.78q2.37,4.85,2.37,6.31l-2.37,3.14-7.89-.78h-30c-1.58-.52-2.36-2.09-2.36-4.72S1963,11,1973.48,11Z"/><path d="M2022.45,11q4.66,0,16.56.78a23.38,23.38,0,0,1,5.54-.78q2.35,4.85,2.36,6.31l-2.36,3.14-7.9-.78h-30q-2.36-.78-2.36-4.72T2020.09,11Z"/></svg>