<?xml version="1.0" encoding="UTF-8"?><svg id="Layer_1" xmlns="http://www.w3.org/2000/svg" viewBox="0 0 166.88 193.69"><defs><style>.cls-1{fill:#fff;}</style></defs><path class="cls-1" d="M46.48,58.91h14.76c2.47,.4,3.71,1.64,3.71,3.71,2.38-1.21,4.22-1.82,5.53-1.82,19.72,9.48,29.58,24.89,29.58,46.22v3.71c-3.82,7.37-11.81,11.05-23.99,11.05-29.6-2.74-44.4-15.07-44.4-36.99v-1.82c0-9.43,4.94-17.45,14.82-24.06Zm0,29.58c2.96,9.88,12.82,14.82,29.58,14.82,7.37-1.26,11.05-3.12,11.05-5.59v-1.82c-7.28-12.31-14.67-18.46-22.17-18.46-12.31,3.01-18.46,6.69-18.46,11.05ZM120.4,36.74c3.28,.81,6.38,3.89,9.3,9.23v33.29l1.82,9.23h-1.82l1.82,3.71c0,7.5,1.24,28.46,3.71,62.87l-12.94,1.89c-4.94-8.94-7.41-45.32-7.41-109.16,1.53-7.37,3.37-11.05,5.53-11.05Z"/></svg>