<?xml version="1.0" encoding="UTF-8"?><svg id="Layer_1" xmlns="http://www.w3.org/2000/svg" viewBox="0 0 184.57 220.29"><defs><style>.cls-1{fill:#fff;}</style></defs><path class="cls-1" d="M78.1,37.28c2.61,1.33,4.63,1.99,6.06,1.99v8.12c0,5.37-4.04,11.42-12.11,18.17,20.24,19.6,30.36,30.41,30.36,32.43-1.38,2.61-2.07,4.63-2.07,6.06h-12.11c-1.33,0-10.09-8.76-26.29-26.3l-24.3,24.3c-2.81-.59-5.52-3.96-8.12-10.12,0-10,15.51-28.22,46.53-54.66h2.07Zm30.36,80.95c22.95,0,34.42,12.83,34.42,38.48,0,3.4-.66,8.79-1.99,16.18l1.99,4.06c0,4.63-6.08,7.34-18.24,8.12v-2.07l-3.99,2.07h-4.06c-1.38,0-2.07-.69-2.07-2.07-1.33,0-1.99,.69-1.99,2.07-26.99,0-40.48-8.1-40.48-24.3l-2.07-12.19h2.07c-2.71-7.73-4.06-16.5-4.06-26.29l4.06-1.99h3.99l6.13,3.99c5.76-2.66,14.53-4.68,26.3-6.06Zm-22.23,22.31l1.99,24.3h34.42c0-2.71,1.35-4.06,4.06-4.06v-16.18c0-3-5.42-5.71-16.25-8.12-3.5,0-11.57,1.35-24.23,4.06Zm28.29-105.33c6.75,3.5,10.12,8.91,10.12,16.25v18.17c0,2.31,8.79,5.02,26.37,8.12l4.06,10.12c-1.38,2.61-2.07,4.63-2.07,6.06l-24.3-4.06,2.07,24.3-6.13,4.06c-8.03,0-13.42-21.59-16.18-64.78,1.08-12.16,3.1-18.24,6.06-18.24Z"/></svg>