<?xml version="1.0" encoding="UTF-8"?><svg id="Layer_1" xmlns="http://www.w3.org/2000/svg" viewBox="0 0 223.33 187.61"><defs><style>.cls-1{fill:#fff;}</style></defs><path class="cls-1" d="M90.92,49.62c2.5,.53,4.91,3.53,7.23,9.01,0,2.15-5.41,9.97-16.24,23.48,15.12,22.84,25.34,34.26,30.64,34.26v10.78h-9.01c-16.97-13.9-25.97-24.7-27.03-32.42h-1.84l-19.79,25.25h-5.46c-3.6-.74-5.39-5.57-5.39-14.47l41.49-55.89h5.39Zm39.72-12.63c5.13,0,8.72,18.63,10.78,55.89l3.62-1.78h27.03c2.94,2.41,5.35,3.62,7.23,3.62v9.01c0,3.6-6.62,5.39-19.86,5.39h-14.4c-2.41,.39-3.62,1.6-3.62,3.62v27.03c0,6.27-1.8,9.89-5.39,10.85h-3.62c-4.08,0-6.49-12.03-7.23-36.1l1.84-3.55c-1.23-2.37-1.84-4.19-1.84-5.46h1.84l-1.84-3.62v-5.39c0-1.18,.61-1.78,1.84-1.78l-1.84-3.62v-16.24c0-7.8-.59-19.84-1.78-36.1,.61,0,3.02-.59,7.23-1.78Z"/></svg>