<?xml version="1.0" encoding="UTF-8"?><svg id="Layer_1" xmlns="http://www.w3.org/2000/svg" viewBox="0 0 169.81 220.4"><defs><style>.cls-1{fill:#fff;}</style></defs><path class="cls-1" d="M41.49,38.78h13.51c13.74,0,26.62,8.35,38.63,25.05,1.27,2.25,1.9,4.83,1.9,7.74v5.77c0,5.16-11.59,9.03-34.76,11.61-19.33-2.25-28.99-11.91-28.99-28.99-1.27,0-1.9-.63-1.9-1.9,3.61-12.85,7.48-19.28,11.61-19.28Zm1.9,21.18c2.63,7.74,5.21,11.61,7.74,11.61h11.61l19.28-1.9v-3.87c-7.65-9.01-17.31-13.51-28.99-13.51-5.86,2.49-9.08,5.04-9.64,7.67Zm71.49-21.18c9.01,0,15.43,23.17,19.28,69.52-2.58,0-3.87,1.92-3.87,5.77h-3.87l-3.87-1.97v1.97c2.58,4.22,3.87,8.09,3.87,11.61-3.24,12.85-7.08,19.28-11.54,19.28h-32.86v1.9c5.96,10.32,14.96,15.48,27.02,15.48,8.4-2.58,14.85-5.79,19.35-9.64h3.87c2.63,.56,5.18,3.78,7.67,9.64,0,9.01-9.01,15.43-27.02,19.28-29.6-4.18-44.4-18.97-44.4-44.4-1.31,0-1.97-3.21-1.97-9.64l3.87-1.9h36.73c2.58,0,3.87-1.29,3.87-3.87-5.16-2.58-16.75-5.16-34.76-7.74l-3.87,1.9c-9.01-1.64-13.51-6.14-13.51-13.51v-5.77c30.07,0,50.66,4.5,61.78,13.51-3.85-13.41-7.06-34.01-9.64-61.78v-5.84c.37-2.53,1.66-3.8,3.87-3.8Z"/></svg>