<svg id="Layer_1" data-name="Layer 1" xmlns="http://www.w3.org/2000/svg" viewBox="0 0 137 31"><path d="M2.64,5q6.93.31,9.16,5.92a11.22,11.22,0,0,0,.26,2.75Q12,15.26,8.77,17.07L6.42,17Q.18,15.89.41,10.8L.47,9.62A15.46,15.46,0,0,1,1.4,6.51l.05-1.17A3,3,0,0,1,2.64,5Zm1.43,3.2a14.7,14.7,0,0,0-1,3.5l0,.39c.22.79,1,1.22,2.3,1.28l2.36.11C8.54,13.52,9,13,9,12c.11-2.35-1.41-3.6-4.54-3.75ZM16.61.53c1.31.06,1.9,1.27,1.8,3.63l-.31,6.66,1.17.06,2.33.51a3.8,3.8,0,0,1,2-.31c.76.63,1.1,1.83,1,3.58A3.2,3.2,0,0,1,23,15l-4.71-.22.78,8.68-1.21.73-1.17-.05Q14.33,24,15,1.25l0-.39A10.36,10.36,0,0,0,16.61.53Z"/><path d="M33.18,8.38q5.72.26,10.75,5.21c0,.41,1,1,3.06,1.7q4.65.23,7.69-5.13l1.21-.73c.77.3,1.13,1.1,1.07,2.41L56.9,13q-3.84,5.7-8.09,5.51l-1.59.33Q44,18.7,40.73,15a30.53,30.53,0,0,0-6.54-3q-4.44-.21-6.08,4.42l-1.19-.06a3.14,3.14,0,0,1-.32-1.57q.2-4.15,5-6A2.94,2.94,0,0,1,33.18,8.38Z"/><path d="M62.6,1.06l2,.09q3.44,2,3.29,5.27a41.54,41.54,0,0,1-1,5.06q1.38.78,3.67,5.67A3.84,3.84,0,0,0,70,19.09L68.47,19q-.54-2.52-3.7-5.27c-2.06,2.26-3.28,3.39-3.68,3.37l-.4,0c-.77-.3-1.13-1.11-1.07-2.41q.65,0,3.75-4.55c.68,0,1.25-1,1.7-3.06l.08-1.57a.69.69,0,0,0-.74-.82l-4.32-.2a.7.7,0,0,1-.75-.83C59.42,1.83,60.51,1,62.6,1.06ZM74.7,3.2l1.17,0c.71,0,1.14,2,1.31,5.95l-.4,0,.36.81a.35.35,0,0,1-.42.38l.37.79L77,13.52l-.44.77.4,0c0-.27.15-.4.41-.38l0,.78a.35.35,0,0,1-.41.39c.24.4.43,2.11.56,5.12h-.4a6.24,6.24,0,0,1,.67,2.39l-.38,0,.35.81-.11,2.34a.7.7,0,0,1-.82.76l-1.58-.08q-.84-1.57-.82-16.15l.17-3.53a3.1,3.1,0,0,0-.33-1.59A3.78,3.78,0,0,0,74.7,3.2Z"/><path d="M89.36,1.54q6.65.3,7.87,8.21v.4a.7.7,0,0,1-.83.74q-7.06-.33-7.12.86l0,.39c.53,0,.78.16.77.42l.81-.35,4.7.22a2.09,2.09,0,0,1,2.26,2.47l0,.38-.44.77,2.75.13c1.31.06,3.28,0,5.89-.13a4.37,4.37,0,0,1,1.42,3.6,4.64,4.64,0,0,1-2.4.68l-9.8-.45.36.81L95.45,23q0,.41.92,5.55l-.08,1.57a12.23,12.23,0,0,1-1.59.32c-1.7-2.83-2.52-5.09-2.44-6.8l.4,0-.36-.8.14-3.14-3.53-.16q-8.62-.39-8.55-2A3.18,3.18,0,0,1,80,16c.11-.52.39-.77.83-.75l.38,0a.35.35,0,0,1,.39.41l.79-.36,5.49.26A12.43,12.43,0,0,1,86.21,10c-.78,0-1.13-.84-1.06-2.41l.8-.35,7.45.34a3,3,0,0,1,.44-1.15q-1-1.09-6.2-1.86a4.57,4.57,0,0,1-1.07-2.4Z"/><path d="M127.77,4.11l.79,0c1,.05,1.47,1.9,1.3,5.55l-.11,2.36c0,.62,1,1.06,3.08,1.32l-.29-2,.27-5.87c.11-.52.38-.78.82-.75l.79,0a2.66,2.66,0,0,1,1.43,2.82l0,.39a.35.35,0,0,1-.4.38l.35.79-.09,2q1,13.11.9,14.56l-.8.37-2-.09a73,73,0,0,1-1.11-10.26c-1.58.27-2.38.62-2.4,1.06l.37.81c0,.26-.15.38-.42.37l.31,2-.05,1.18c0,.38-.44.75-1.25,1.12l-.38,0q-1.56-.08-1.55-9.09a3,3,0,0,0-1.19.33q-5.31-.63-6.63-.69l-2.36-.11,0,.39q6.78.32,7.94,6.64A4,4,0,0,1,120.62,23l-.79,0q-6.61-1.18-6.36-6.59c.25-1,.53-1.53.86-1.52l-.37-.8,0-.79a11.39,11.39,0,0,1,2.76-.26l0-.39-.78,0a35.15,35.15,0,0,1-5.11.15,13.44,13.44,0,0,1-1-3.19q1.71-1.1,5.53-.92,11.74.93,11.67,2.5l-.31-2,.2-4.3C127.06,4.34,127.33,4.09,127.77,4.11ZM111,3l13.7.63c.36,0,1,.69,1.87,2V6c0,.38-.43.75-1.23,1.12l-8.63-.39L114.29,7l-.77-.42-2.36.28a6.59,6.59,0,0,1-1-3.19C110.24,3.17,110.51,2.93,111,3Zm5.29,12.8-.11,2.34a13.94,13.94,0,0,0,4.27,1.37c1.21-.45,1.89-.94,2-1.46q-2.75-2.1-4.23-2.16Z"/></svg>