<?xml version="1.0" encoding="UTF-8"?><svg id="Layer_1" xmlns="http://www.w3.org/2000/svg" viewBox="0 0 128.21 74.62"><path d="M2.09,0h2.09c1.37,0,2.75,2.09,4.14,6.26l-1.02,7.29,1.02,10.4,5.2-1.06h10.4v-2.05c0-.71-1.04-5.57-3.11-14.58V2.09h2.09c3.82,0,6.59,7.99,8.31,23.95-.84,11.44-2.91,18.03-6.23,19.78h-5.2C7.28,43.31,1.03,36.37,1.03,24.98c-.68-1.92-1.03-7.12-1.03-15.6v-2.09L2.09,0ZM11.46,32.27c.91,2.78,4.02,4.18,9.34,4.18l2.09-3.11c-.68,0-1.02-.35-1.02-1.06,.68,0,1.02-.34,1.02-1.03h-3.11c-.71,0-1.06,.34-1.06,1.03l-2.05-1.03-5.2,1.03Zm17.69,13.55h3.11c1.39,11.79,6.25,17.69,14.58,17.69h2.05c2.96,0,6.43-1.75,10.4-5.24h2.09l1.06,7.29c0,3.47-4.16,6.25-12.49,8.35h-2.09c-13.87-2.96-20.8-9.55-20.8-19.78,1.39-5.21,2.09-7.98,2.09-8.31ZM38.49,2.09h2.09c2.07,0,4.16,6.59,6.26,19.78h-1.06c0,2.46,2.77,4.53,8.31,6.23l2.09,3.15v3.11c-2.08,0-4.85,.7-8.31,2.09l1.03,2.09v7.29c-1.37,1.67-2.05,3.05-2.05,4.14h-3.15c-2.33,0-4.4-14.56-6.23-43.69,.68-1.21,1.02-2.61,1.02-4.18Z"/><path d="M67.85,14.26h24.98c2.07,0,3.11,2.77,3.11,8.31-.68,0-1.02,.7-1.02,2.09h-20.84l-1.02,9.38c1.8,6.23,7.34,9.34,16.63,9.34,.35,0,1.75-.34,4.18-1.03v1.03l2.09-1.03h2.09l1.03,4.18c-3.19,4.83-7,7.25-11.43,7.25-14.58-2.56-21.87-9.49-21.87-20.8v-6.23c0-1.57,.34-2.96,1.03-4.18-.68-1.34-1.03-2.38-1.03-3.11h1.03l-1.03-2.09v-1.03c.23-1.39,.92-2.09,2.09-2.09Zm36.41-3.11c3.47,0,5.2,4.15,5.2,12.45v10.44h8.35c.68-12.53,1.37-20.16,2.05-22.89h3.15c1.67,0,3.05,4.85,4.14,14.54l-1.02,5.2v14.58c0,5.39,.7,14.75,2.09,28.09l-2.09,1.06h-4.18c-3.14,0-4.87-9.72-5.2-29.15v-2.09h-2.09l-5.2,1.06,1.06,10.4v5.2l-5.2,1.02c0-2.07-1.05-3.11-3.15-3.11,0-.68,.35-1.03,1.06-1.03-1.39-2.28-2.09-4.37-2.09-6.26V27.78c0-11.08,1.04-16.63,3.11-16.63Z"/></svg>