<?xml version="1.0" encoding="UTF-8"?><svg id="Layer_1" xmlns="http://www.w3.org/2000/svg" viewBox="0 0 1852.4 1430.45"><g><path d="M294.79,671.63c5.96-5.04,8.94-10.94,8.94-17.7v-5.93h-6.92v-3.52h17.92v3.52h-6.88v5.63c0,1.92,.28,3.8,.84,5.65s1.3,3.48,2.21,4.9,1.79,2.62,2.62,3.61,1.69,1.87,2.58,2.64l-2.79,2.36c-1.38-1.17-2.81-2.78-4.3-4.81-1.49-2.03-2.52-3.87-3.09-5.5-.54,1.75-1.65,3.8-3.31,6.17s-3.25,4.18-4.77,5.44l-3.05-2.45Zm17.57-12.42v-3.74h6.1v-13.84h3.7v36.91h-3.7v-19.34h-6.1Zm14.48,21.1v-39.79h3.91v39.79h-3.91Z"/><path d="M337.84,666.95v-3.52h38.84v3.52h-17.27v13.45h-4.08v-13.45h-17.49Zm2.88-9.37c1.49-.4,2.99-.92,4.51-1.55,1.52-.63,3.01-1.37,4.49-2.21,1.48-.84,2.71-1.83,3.72-2.96,1-1.13,1.56-2.27,1.68-3.42v-1.76h-11.77v-3.44h28.14v3.44h-11.64v1.76c.11,1.15,.65,2.28,1.61,3.39s2.18,2.1,3.65,2.94c1.48,.85,2.98,1.59,4.51,2.23s3.04,1.15,4.53,1.53l-1.85,2.88c-2.98-.74-5.89-1.93-8.72-3.57s-4.87-3.37-6.1-5.2c-1.15,1.72-3.12,3.4-5.93,5.05-2.81,1.65-5.79,2.92-8.94,3.8l-1.89-2.92Z"/><path d="M380.64,675.84v-3.52h17.45v-11.47h4.12v11.47h17.27v3.52h-38.84Zm5.84-13.32v-18.99h27.93v3.57h-23.89v11.9h24.11v3.52h-28.14Z"/><path d="M434.22,659.38v-3.39h38.8v3.39h-38.8Zm5.07,10.66v-3.48h27.8v14.05h-4.04v-10.57h-23.76Zm.17-24.15v-3.52h28.57c0,2.15-.17,4.67-.49,7.56-.33,2.89-.77,5.41-1.31,7.56h-3.95c.52-2,.94-4.13,1.27-6.38,.33-2.25,.49-3.99,.49-5.22h-24.58Z"/><path d="M476.98,677v-3.52h17.45v-7h4.17v7h17.23v3.52h-38.84Zm3.05-24.49v-3.31h33v3.31h-33Zm2.62,9.15c0-2.12,1.27-3.71,3.8-4.77,2.54-1.06,5.89-1.59,10.08-1.59s7.36,.54,9.97,1.63c2.61,1.09,3.91,2.68,3.91,4.77s-1.3,3.69-3.89,4.79c-2.59,1.1-5.92,1.65-9.99,1.65s-7.5-.54-10.05-1.63c-2.55-1.09-3.82-2.71-3.82-4.86Zm4.51,0c0,2.32,3.12,3.48,9.37,3.48s9.37-1.16,9.37-3.48-3.12-3.31-9.37-3.31-9.37,1.1-9.37,3.31Zm.09-16.37v-3.35h18.56v3.35h-18.56Z"/></g><g><path d="M1293.27,676.83c5.96-5.04,8.94-10.94,8.94-17.7v-5.93h-6.92v-3.52h17.92v3.52h-6.88v5.63c0,1.92,.28,3.8,.84,5.65s1.29,3.48,2.21,4.9c.92,1.42,1.79,2.62,2.62,3.61,.83,.99,1.69,1.87,2.58,2.64l-2.79,2.36c-1.38-1.17-2.81-2.78-4.3-4.81-1.49-2.03-2.52-3.87-3.09-5.5-.54,1.75-1.65,3.8-3.31,6.17-1.66,2.36-3.25,4.18-4.77,5.44l-3.05-2.45Zm17.57-12.42v-3.74h6.1v-13.84h3.7v36.91h-3.7v-19.34h-6.1Zm14.48,21.1v-39.79h3.91v39.79h-3.91Z"/><path d="M1336.32,672.15v-3.52h38.84v3.52h-17.27v13.45h-4.08v-13.45h-17.49Zm2.88-9.37c1.49-.4,2.99-.92,4.51-1.55,1.52-.63,3.01-1.37,4.49-2.21,1.47-.84,2.71-1.83,3.72-2.96,1-1.13,1.56-2.27,1.68-3.42v-1.76h-11.77v-3.44h28.14v3.44h-11.64v1.76c.11,1.15,.65,2.28,1.61,3.39,.96,1.12,2.18,2.1,3.65,2.94,1.47,.85,2.98,1.59,4.51,2.23,1.53,.64,3.04,1.15,4.53,1.53l-1.85,2.88c-2.98-.74-5.89-1.93-8.72-3.57s-4.87-3.37-6.1-5.2c-1.15,1.72-3.12,3.4-5.93,5.05-2.81,1.65-5.79,2.92-8.94,3.8l-1.89-2.92Z"/><path d="M1379.12,681.05v-3.52h17.45v-11.47h4.12v11.47h17.27v3.52h-38.84Zm5.84-13.32v-18.99h27.93v3.57h-23.89v11.9h24.11v3.52h-28.14Z"/><path d="M1432.7,664.59v-3.39h38.8v3.39h-38.8Zm5.07,10.66v-3.48h27.8v14.05h-4.04v-10.57h-23.76Zm.17-24.15v-3.52h28.57c0,2.15-.17,4.67-.49,7.56-.33,2.89-.77,5.41-1.31,7.56h-3.95c.52-2,.94-4.13,1.27-6.38,.33-2.25,.49-3.99,.49-5.22h-24.58Z"/><path d="M1475.5,665.75v-3.14h38.8v3.14h-17.36v4.9h-3.95v-4.9h-17.49Zm5.63,19.12v-9.24h23.76v-3.22h-24.02v-3.09h28.06v9.07h-23.76v3.39h24.79v3.09h-28.83Zm.17-25.35v-13.58h4v3.65h19.38v-3.65h4v13.58h-27.37Zm4-3.27h19.38v-3.65h-19.38v3.65Z"/><path d="M1518.25,682.21v-3.52h17.45v-7h4.17v7h17.23v3.52h-38.84Zm3.05-24.49v-3.31h33v3.31h-33Zm2.62,9.15c0-2.12,1.27-3.71,3.8-4.77,2.54-1.06,5.89-1.59,10.08-1.59s7.36,.54,9.97,1.63c2.61,1.09,3.91,2.68,3.91,4.77s-1.3,3.69-3.89,4.79c-2.59,1.1-5.92,1.65-9.99,1.65s-7.51-.54-10.05-1.63c-2.55-1.09-3.82-2.71-3.82-4.86Zm4.51,0c0,2.32,3.12,3.48,9.37,3.48s9.37-1.16,9.37-3.48-3.12-3.31-9.37-3.31-9.37,1.1-9.37,3.31Zm.09-16.37v-3.35h18.56v3.35h-18.56Z"/></g><g><path d="M866.22,1181.48c0-4.55,.89-8.26,2.69-11.13,1.79-2.86,4.26-4.3,7.41-4.3s5.55,1.43,7.37,4.28c1.82,2.85,2.73,6.57,2.73,11.15s-.89,8.3-2.66,11.15c-1.78,2.85-4.25,4.28-7.43,4.28s-5.66-1.43-7.43-4.3c-1.78-2.86-2.66-6.57-2.66-11.13Zm4.12,0c0,3.41,.5,6.23,1.5,8.46,1,2.23,2.49,3.35,4.47,3.35s3.47-1.12,4.47-3.37c1-2.25,1.5-5.06,1.5-8.44s-.5-6.22-1.5-8.44c-1-2.22-2.49-3.33-4.47-3.33s-3.5,1.12-4.49,3.37c-.99,2.25-1.48,5.05-1.48,8.4Zm24.06,22.21v-39.79h4.08v39.79h-4.08Z"/><path d="M906.01,1184.1c1.46-.74,2.81-1.57,4.06-2.47s2.46-1.97,3.65-3.2c1.19-1.23,2.13-2.65,2.84-4.25,.7-1.6,1.05-3.29,1.05-5.07v-4.12h4v4.04c0,1.6,.34,3.14,1.01,4.62,.67,1.48,1.58,2.77,2.71,3.89,1.13,1.12,2.26,2.08,3.37,2.88,1.12,.8,2.29,1.53,3.52,2.19l-2.36,2.75c-1.75-.74-3.62-1.98-5.61-3.7-1.99-1.72-3.52-3.49-4.58-5.33-.97,2.01-2.54,4-4.71,5.99-2.16,1.99-4.33,3.52-6.51,4.58l-2.45-2.79Zm7.35,11.73c0-2.43,1.32-4.34,3.97-5.71,2.65-1.38,6.17-2.06,10.55-2.06s7.96,.68,10.63,2.04c2.68,1.36,4.02,3.27,4.02,5.74s-1.35,4.34-4.06,5.71-6.24,2.05-10.59,2.02c-4.41-.03-7.94-.72-10.57-2.06-2.64-1.35-3.95-3.24-3.95-5.67Zm4.34,0c0,1.38,.89,2.43,2.69,3.16,1.79,.73,4.29,1.1,7.5,1.1s5.55-.38,7.46-1.14c1.9-.76,2.86-1.8,2.86-3.12,0-1.4-.92-2.47-2.77-3.2s-4.36-1.1-7.54-1.1-5.67,.37-7.48,1.12c-1.8,.75-2.71,1.8-2.71,3.18Zm11.04-19.85v-3.57h8.89v-8.51h4.04v24.19h-4.04v-12.12h-8.89Z"/><path d="M949.75,1185.39c1.06-.43,2.18-1,3.35-1.72,1.17-.72,2.36-1.6,3.57-2.64,1.2-1.04,2.21-2.27,3.01-3.67,.8-1.4,1.22-2.84,1.25-4.3v-3.22h-8.94v-3.44h22.09v3.44h-8.81v3.09c.06,1.29,.44,2.57,1.14,3.85,.7,1.28,1.6,2.41,2.71,3.39,1.1,.99,2.18,1.84,3.24,2.56,1.06,.72,2.11,1.32,3.14,1.8l-2.19,2.66c-1.83-.8-3.77-2.03-5.8-3.7-2.03-1.66-3.48-3.22-4.34-4.68-.95,1.63-2.5,3.37-4.66,5.2-2.16,1.83-4.3,3.19-6.42,4.08l-2.32-2.71Zm6.66,8.68v-3.44h27.97v13.41h-4v-9.97h-23.98Zm15.73-16.24v-3.57h8.21v-10.36h4.04v24.66h-4.04v-10.74h-8.21Z"/></g><g><path d="M863.68,245.79c4.58-1.43,8.52-3.39,11.82-5.89,3.29-2.49,5.17-5.08,5.63-7.78h-14.91v-3.52h19.64c-.03,2.21-.49,4.3-1.4,6.29-.9,1.99-2.02,3.68-3.35,5.07-1.33,1.39-2.94,2.69-4.81,3.89-1.88,1.2-3.63,2.17-5.26,2.9s-3.34,1.4-5.11,2l-2.23-2.96Zm6.79,19.81v-14.87h26.47v14.87h-26.47Zm4.04-3.57h18.39v-7.73h-18.39v7.73Zm18.43-13.36v-22.26h4.04v9.8h5.37v3.65h-5.37v8.81h-4.04Z"/><path d="M906.01,246.61c1.46-.74,2.81-1.57,4.06-2.47s2.46-1.97,3.65-3.2c1.19-1.23,2.13-2.65,2.84-4.25,.7-1.6,1.05-3.29,1.05-5.07v-4.12h4v4.04c0,1.6,.34,3.14,1.01,4.62,.67,1.48,1.58,2.77,2.71,3.89,1.13,1.12,2.26,2.08,3.37,2.88,1.12,.8,2.29,1.53,3.52,2.19l-2.36,2.75c-1.75-.74-3.62-1.98-5.61-3.7-1.99-1.72-3.52-3.49-4.58-5.33-.97,2.01-2.54,4-4.71,5.99-2.16,1.99-4.33,3.52-6.51,4.58l-2.45-2.79Zm7.35,11.73c0-2.43,1.32-4.34,3.97-5.71,2.65-1.38,6.17-2.06,10.55-2.06s7.96,.68,10.63,2.04c2.68,1.36,4.02,3.27,4.02,5.74s-1.35,4.34-4.06,5.71-6.24,2.05-10.59,2.02c-4.41-.03-7.94-.72-10.57-2.06-2.64-1.35-3.95-3.24-3.95-5.67Zm4.34,0c0,1.38,.89,2.43,2.69,3.16,1.79,.73,4.29,1.1,7.5,1.1s5.55-.38,7.46-1.14c1.9-.76,2.86-1.8,2.86-3.12,0-1.4-.92-2.47-2.77-3.2s-4.36-1.1-7.54-1.1-5.67,.37-7.48,1.12c-1.8,.75-2.71,1.8-2.71,3.18Zm11.04-19.85v-3.57h8.89v-8.51h4.04v24.19h-4.04v-12.12h-8.89Z"/><path d="M949.75,247.9c1.06-.43,2.18-1,3.35-1.72,1.17-.72,2.36-1.6,3.57-2.64,1.2-1.05,2.21-2.27,3.01-3.67,.8-1.4,1.22-2.84,1.25-4.3v-3.22h-8.94v-3.44h22.09v3.44h-8.81v3.09c.06,1.29,.44,2.57,1.14,3.85,.7,1.27,1.6,2.41,2.71,3.39,1.1,.99,2.18,1.84,3.24,2.56,1.06,.72,2.11,1.32,3.14,1.8l-2.19,2.66c-1.83-.8-3.77-2.03-5.8-3.7-2.03-1.66-3.48-3.22-4.34-4.68-.95,1.63-2.5,3.37-4.66,5.2-2.16,1.83-4.3,3.19-6.42,4.08l-2.32-2.71Zm6.66,8.68v-3.44h27.97v13.41h-4v-9.97h-23.98Zm15.73-16.24v-3.57h8.21v-10.36h4.04v24.66h-4.04v-10.74h-8.21Z"/></g><rect x="293.2" y="713.1" width="1266" height="1"/><rect x="925.7" y="292.1" width="1" height="843"/></svg>